<svg xmlns="http://www.w3.org/2000/svg" viewBox="0 0 653.751 464">
  <path id="Path_1" data-name="Path 1" d="M-2109.792,904.783c73.426,5.785,138.376-9.8,197.142-48.283-61.82-4.742-102.944-31.632-125.109-81.133,16.172,0,31.335.139,46.492-.1,3.808-.06,7.592-1.315,12.386-2.207-66.711-17.634-101.954-55.769-106.577-116.878,19.519,8.806,38.635,13.839,60.989,14.776-29.316-18.628-48.237-41.9-55.772-71.546-7.508-29.542-2.6-57.544,14.623-84.514,72.808,74.471,164.535,115.417,277.02,122.328-.625-3.93-1.159-7.138-1.646-10.353-9.291-61.442,34.233-117.1,103.716-130.587,46.86-9.1,88.4,1.612,123.407,30.359,3.408,2.8,6.318,3.377,10.6,2.513a303.885,303.885,0,0,0,74.394-25.01c1.115-.548,2.281-1.014,4.556-2.018-10.656,27.508-29.635,48.075-56.353,63.685,25.318-2.311,49.391-8.275,73.885-17.346-1.317,1.975-1.919,3.051-2.7,4.02a246.794,246.794,0,0,1-58.968,53.162c-3.547,2.3-4.563,4.578-4.5,8.217,1.42,88.528-31.194,166.583-97.51,233.494-55.245,55.741-125.362,89.865-208.532,103.621a459.546,459.546,0,0,1-110.539,4.772c-60.486-4.654-116.533-21.116-168.117-49.008C-2107.481,906.442-2107.979,906.027-2109.792,904.783Z" transform="translate(2109.792 -493.134)" fill="#e4e4e4" opacity="0.42"/>
</svg>
