<svg xmlns="http://www.w3.org/2000/svg" xmlns:xlink="http://www.w3.org/1999/xlink" viewBox="0 0 320.98 283.915">
  <defs>
    <linearGradient id="linear-gradient" x1="0.068" y1="0.106" x2="0.916" y2="0.88" gradientUnits="objectBoundingBox">
      <stop offset="0" stop-color="#3a9bd5"/>
      <stop offset="0.305" stop-color="#3a9bd5"/>
      <stop offset="0.356" stop-color="#3a9bd5"/>
      <stop offset="0.599" stop-color="#3999d3"/>
      <stop offset="0.688" stop-color="#3592cf"/>
      <stop offset="0.752" stop-color="#2f86c7"/>
      <stop offset="0.804" stop-color="#2675bb"/>
      <stop offset="0.81" stop-color="#2573ba"/>
    </linearGradient>
    <linearGradient id="linear-gradient-2" x1="-42.504" y1="0.5" x2="-41.504" y2="0.5" gradientUnits="objectBoundingBox">
      <stop offset="0" stop-color="#0063ad"/>
      <stop offset="1" stop-color="#2573ba"/>
    </linearGradient>
  </defs>
  <g id="Group_26" data-name="Group 26" transform="translate(-745.111 362.071)">
    <path id="Path_3147" data-name="Path 3147" d="M1066.091-175.335l-19.416-3.381L857.061-288.19c-3.646-2.1-10.014-1.841-14.224.589L755-236.865l-9.887-1.722v10.045h.009a4.209,4.209,0,0,0,2.452,3.586L954.141-105.692c3.646,2.1,10.014,1.841,14.224-.59l94.243-54.433c2.337-1.349,3.514-3.083,3.477-4.719h.005Z" transform="translate(0 26.116)" fill="url(#linear-gradient)"/>
    <path id="Path_3148" data-name="Path 3148" d="M1062.608-168.049l-94.243,54.433c-4.21,2.43-10.579,2.694-14.224.589L747.572-232.29c-3.644-2.1-3.187-5.78,1.022-8.211l94.242-54.433c4.21-2.431,10.578-2.695,14.224-.589L1063.63-176.261C1067.275-174.157,1066.818-170.48,1062.608-168.049Z" transform="translate(0 23.472)" fill="#1177b8"/>
    <path id="Path_3149" data-name="Path 3149" d="M1062.605-185.353,968.363-130.92c-4.21,2.431-10.579,2.695-14.224.59L747.569-249.593a4.54,4.54,0,0,1-2.392-2.907c-.29,1.558.484,3.091,2.392,4.191L954.138-129.045c3.646,2.1,10.014,1.841,14.224-.589l94.243-54.433c2.619-1.513,3.783-3.507,3.413-5.306C1065.756-187.953,1064.612-186.51,1062.605-185.353Z" transform="translate(0.003 39.491)" fill="#fff"/>
    <path id="Path_3150" data-name="Path 3150" d="M1061.865-177.28,952.377-114.045,747.567-232.293l109.488-63.235Z" transform="translate(0.885 23.983)" fill="#00acee"/>
    <path id="Path_3151" data-name="Path 3151" d="M797.247-276.927l-14.544,8.4a2.371,2.371,0,0,1-2.133.088l-.148-.086c-.547-.316-.477-.867.154-1.231l14.544-8.4a2.371,2.371,0,0,1,2.133-.088l.147.086C797.947-277.842,797.879-277.291,797.247-276.927Z" transform="translate(12.593 30.135)" fill="#0063ad"/>
    <g id="Group_23" data-name="Group 23" transform="translate(768.939 -215.649)">
      <path id="Path_3152" data-name="Path 3152" d="M768.811-247.623l-1.836,1.06-4.349-2.511,1.836-1.06Z" transform="translate(-762.626 255.993)" fill="#fff"/>
      <path id="Path_3153" data-name="Path 3153" d="M771.3-249.059,769.461-248l-4.349-2.511,1.836-1.06Z" transform="translate(-761.73 255.475)" fill="#fff"/>
      <path id="Path_3154" data-name="Path 3154" d="M773.784-250.494l-1.836,1.06-4.349-2.511,1.836-1.06Z" transform="translate(-760.834 254.958)" fill="#fff"/>
      <path id="Path_3155" data-name="Path 3155" d="M776.27-251.93l-1.836,1.06-4.349-2.511,1.836-1.06Z" transform="translate(-759.938 254.441)" fill="#fff"/>
    </g>
    <ellipse id="Ellipse_5" data-name="Ellipse 5" cx="36.602" cy="21.132" rx="36.602" ry="21.132" transform="translate(846.926 -216.177)" fill="#fff"/>
    <path id="Path_3156" data-name="Path 3156" d="M861.946-197.468c-14.547,0-29.1-3.2-40.17-9.592-10.822-6.248-16.783-14.586-16.783-23.475s5.96-17.227,16.782-23.474c22.152-12.788,58.19-12.788,80.342,0,10.822,6.248,16.783,14.585,16.783,23.475s-5.96,17.226-16.782,23.474C891.042-200.666,876.494-197.468,861.946-197.468Zm0-65.172c-14.371,0-28.743,3.16-39.683,9.475-10.506,6.066-16.294,14.1-16.294,22.629s5.787,16.563,16.295,22.63c21.882,12.631,57.486,12.631,79.365,0,10.508-6.067,16.3-14.1,16.3-22.629s-5.787-16.563-16.3-22.63C890.687-259.479,876.317-262.64,861.946-262.64Z" transform="translate(21.582 35.49)" fill="#fff"/>
    <path id="Path_3157" data-name="Path 3157" d="M916.819-303.021l-51.138-54.912-51.138-4.137s-8.218,69.323,51.138,142.85C925.037-224.209,916.819-303.021,916.819-303.021Z" transform="translate(24.885 0)" fill="#1177b8"/>
    <path id="Path_3158" data-name="Path 3158" d="M817.489-362.07l-11.506,6.643,51.138,4.137,11.506-6.643Z" transform="translate(21.939)" fill="url(#linear-gradient-2)"/>
    <path id="Path_3159" data-name="Path 3159" d="M908.361-298.139l-51.138-54.912L836.2-355.176l-30.111-2.012s-8.218,69.324,51.138,142.851C916.579-219.327,908.361-298.139,908.361-298.139Z" transform="translate(21.837 1.76)" fill="#dce6ea"/>
    <path id="Path_3160" data-name="Path 3160" d="M908.259-297.918,857.121-352.83l-51.138-4.137,1.446-.834,51.818,4.193,51.136,54.91s6.861,65.885-37.341,80.983C914.9-234.168,908.259-297.918,908.259-297.918Z" transform="translate(21.939 1.539)" fill="#fff"/>
    <path id="Path_3161" data-name="Path 3161" d="M901.054-299.091l-45.978-49.371-18.906-1.91L809.1-352.181s-7.39,62.327,45.978,128.436C908.442-228.231,901.054-299.091,901.054-299.091Z" transform="translate(22.936 3.564)" fill="#1177b8"/>
    <g id="Group_24" data-name="Group 24" transform="translate(841.852 -335.009)">
      <rect id="Rectangle_12" data-name="Rectangle 12" width="2.557" height="2.557" transform="translate(1.808 3.277) rotate(45)" fill="#fff"/>
      <rect id="Rectangle_13" data-name="Rectangle 13" width="2.557" height="2.557" transform="matrix(0.707, 0.707, -0.707, 0.707, 8.339, 3.254)" fill="#fff"/>
      <rect id="Rectangle_14" data-name="Rectangle 14" width="2.557" height="2.557" transform="translate(5.085 0) rotate(45)" fill="#fff"/>
      <rect id="Rectangle_15" data-name="Rectangle 15" width="2.557" height="2.557" transform="matrix(0.707, 0.707, -0.707, 0.707, 5.062, 6.531)" fill="#fff"/>
    </g>
    <g id="Group_25" data-name="Group 25" transform="translate(926.137 -172.711)">
      <path id="Path_3162" data-name="Path 3162" d="M903.559-179.62a.714.714,0,0,1-.712-.657.715.715,0,0,1,.656-.77,73.677,73.677,0,0,0,30.406-9.222c9.572-5.527,15.3-11.03,17.039-16.355a.713.713,0,0,1,.9-.458.715.715,0,0,1,.458.9c-1.846,5.67-7.8,11.44-17.684,17.149a75.143,75.143,0,0,1-31.006,9.41Z" transform="translate(-869.288 228.557)" fill="#fff"/>
      <path id="Path_3163" data-name="Path 3163" d="M954.165-203.847a.716.716,0,0,1-.714-.688c-.152-4.239-3.238-8.214-8.923-11.5-12.569-7.256-28.96-7.218-46.155.11a.716.716,0,0,1-.937-.378.715.715,0,0,1,.377-.939c17.619-7.507,34.463-7.518,47.431-.031,6.133,3.541,9.466,7.927,9.637,12.682a.718.718,0,0,1-.69.741Z" transform="translate(-871.258 222.877)" fill="#fff"/>
      <path id="Path_3164" data-name="Path 3164" d="M901.554-174.882l-.068,0a38,38,0,0,1-15.29-4.385c-4.431-2.558-7.191-6.016-7.984-10a1.847,1.847,0,0,1,.457-1.586,4.377,4.377,0,0,1,3.5-1.188c1.668.09,2.989.86,3.289,1.914.79,2.766,2.824,5.111,6.044,6.971,11.162,6.444,32.657,4.521,47.918-4.289,9.847-5.685,15.052-11.481,15.052-16.759,0-3.717-2.635-7.2-7.621-10.082-12.864-7.425-30.329-5.862-47.918,4.291-6.345,3.664-10.9,8.152-12.811,12.638a3.311,3.311,0,0,1-3.064,1.589,3.737,3.737,0,0,1-3.228-1.325,1.62,1.62,0,0,1-.1-1.626c2.59-5.25,7.816-10.252,15.11-14.464a.715.715,0,0,1,.977.263.713.713,0,0,1-.263.975c-7.048,4.07-12.078,8.863-14.543,13.858a.19.19,0,0,0,.021.222,2.479,2.479,0,0,0,1.985.667,2.1,2.1,0,0,0,1.788-.721c2.036-4.77,6.8-9.5,13.412-13.314,18.042-10.417,36.028-11.981,49.346-4.291,5.454,3.149,8.337,7.063,8.337,11.32,0,5.9-5.3,11.955-15.767,18-15.654,9.039-37.791,10.962-49.348,4.289-3.5-2.022-5.82-4.725-6.7-7.816-.107-.377-.9-.82-1.992-.88a3.045,3.045,0,0,0-2.345.7c-.17.2-.146.324-.136.371.71,3.57,3.234,6.7,7.3,9.043a36.587,36.587,0,0,0,14.707,4.2.715.715,0,0,1,.645.778A.714.714,0,0,1,901.554-174.882Z" transform="translate(-878.178 223.788)" fill="#fff"/>
      <path id="Path_3165" data-name="Path 3165" d="M909.481-184.7a3.93,3.93,0,0,1-2.853-1.053,1.691,1.691,0,0,1-.4-1.69,2.753,2.753,0,0,1,2.2-1.607,45.6,45.6,0,0,0,13.589-5.068c6.609-3.816,10.353-7.628,10.825-11.025a5.5,5.5,0,0,0-1.747-4.707,1.8,1.8,0,0,1-.522-1.694,2.664,2.664,0,0,1,1.858-1.747,4.961,4.961,0,0,1,4.927.837,8.671,8.671,0,0,1,2.656,6.773c-.275,3.532-2.831,7.186-7.6,10.863a.715.715,0,0,1-1-.131.713.713,0,0,1,.129-1c4.431-3.42,6.8-6.73,7.043-9.841a7.3,7.3,0,0,0-2.268-5.68,3.67,3.67,0,0,0-3.413-.473c-.622.22-.9.528-.942.725-.011.044-.041.171.155.373a6.857,6.857,0,0,1,2.137,5.9c-.543,3.9-4.421,7.964-11.525,12.065a47.072,47.072,0,0,1-14.021,5.231c-.675.137-1.058.434-1.13.653-.012.037-.041.122.1.284a2.926,2.926,0,0,0,2.522.5,53.786,53.786,0,0,0,15.415-5.831.713.713,0,0,1,.975.263.713.713,0,0,1-.261.975,55.161,55.161,0,0,1-15.828,5.99A4.881,4.881,0,0,1,909.481-184.7Z" transform="translate(-868.099 226.226)" fill="#fff"/>
      <path id="Path_3166" data-name="Path 3166" d="M905.305-182.053l-.167,0c-5.249-.162-9.777-1.261-13.1-3.177-3.748-2.164-5.73-5.2-5.73-8.768,0-5.42,4.747-11.4,12.7-15.988,12.6-7.274,25.182-9.611,35.441-6.582a2.863,2.863,0,0,1,2.094,1.747,1.8,1.8,0,0,1-.423,1.718h0a4.89,4.89,0,0,1-4.767.962c-7.327-2.2-16.579-.643-26.051,4.378-.356.189-.484.388-.486.5,0,.131.158.309.41.454a3.424,3.424,0,0,0,2.932.038c9.42-4.979,18.2-5.888,24.077-2.494,2.371,1.369,3.623,3.16,3.623,5.182,0,3.321-3.261,6.888-9.692,10.6-8.817,5.089-20.437,6.665-25.906,3.5A5.632,5.632,0,0,1,897.269-194c-.331-2.17.686-4.6,2.936-7.039.129-.141.112-.219.106-.245-.031-.147-.246-.37-.656-.54a3.186,3.186,0,0,0-3.057.346c-2.481,2.687-3.65,5.473-3.288,7.85a6.667,6.667,0,0,0,3.645,4.73,19.625,19.625,0,0,0,8.556,2.2c1.827.1,3.143,1.014,3.2,2.212a1.836,1.836,0,0,1-.559,1.419A4.026,4.026,0,0,1,905.305-182.053Zm19.838-34.38c-7.889,0-16.636,2.613-25.419,7.684-7.5,4.332-11.982,9.845-11.982,14.75,0,3.031,1.734,5.635,5.016,7.53,3.115,1.8,7.412,2.831,12.425,2.985a2.714,2.714,0,0,0,1.951-.581.447.447,0,0,0,.154-.294c-.018-.366-.731-.843-1.857-.906a21.039,21.039,0,0,1-9.19-2.39,8.128,8.128,0,0,1-4.342-5.753c-.429-2.815.869-6.023,3.651-9.034a4.522,4.522,0,0,1,4.655-.7,2.318,2.318,0,0,1,1.5,1.554,1.68,1.68,0,0,1-.453,1.521c-1.917,2.075-2.831,4.155-2.573,5.854a4.207,4.207,0,0,0,2.294,2.994c5.073,2.93,16.054,1.358,24.475-3.5,5.79-3.343,8.977-6.667,8.977-9.362,0-1.5-.978-2.83-2.907-3.944-5.446-3.143-13.717-2.226-22.694,2.519a4.819,4.819,0,0,1-4.314-.064,1.991,1.991,0,0,1-1.125-1.718,2.076,2.076,0,0,1,1.245-1.736c9.8-5.2,19.439-6.794,27.132-4.485a3.542,3.542,0,0,0,3.279-.532h0c.178-.205.141-.332.128-.38-.071-.242-.446-.575-1.126-.775A31.4,31.4,0,0,0,925.143-216.434Zm10.44,2.86h0Z" transform="translate(-875.247 224.685)" fill="#fff"/>
      <path id="Path_3167" data-name="Path 3167" d="M904.354-194.129a8.552,8.552,0,0,1-4.229-.9,3.192,3.192,0,0,1-1.751-2.847c0-2.556,2.753-5.672,7.365-8.335,7.484-4.322,14.022-5.5,17.938-3.241a3.6,3.6,0,0,1,2.087,3.039c.056,2.087-1.887,4.43-5.775,6.963a4.756,4.756,0,0,1-4.544.082,2.027,2.027,0,0,1-1.125-1.647,1.9,1.9,0,0,1,.978-1.634c3.121-2.027,3.119-2.864,3.119-2.864-.872-.5-3.5-.075-8.266,2.676-3.3,1.909-4.669,3.543-4.666,3.994a.715.715,0,0,1-.71.72h0a.714.714,0,0,1-.716-.71c-.014-1.973,4.115-4.511,5.382-5.242,3.269-1.887,7.594-3.895,9.63-2.715a1.444,1.444,0,0,1,.777,1.235c.019.7-.351,1.887-3.768,4.1-.2.133-.329.286-.327.4s.112.275.41.448a3.357,3.357,0,0,0,3.049-.041c4.516-2.943,5.15-4.851,5.126-5.727a2.282,2.282,0,0,0-1.371-1.839c-1.638-.945-6.526-2.522-16.51,3.241-4.039,2.333-6.65,5.119-6.65,7.1a1.792,1.792,0,0,0,1.035,1.609c1.737,1,5.151.947,9.13-.15a.714.714,0,0,1,.879.5.714.714,0,0,1-.5.879A23.037,23.037,0,0,1,904.354-194.129Z" transform="translate(-870.9 227.309)" fill="#fff"/>
    </g>
    <path id="Path_3168" data-name="Path 3168" d="M899.177-213.445a.457.457,0,0,1-.227-.06l-18.834-10.874a.452.452,0,0,1-.166-.62.453.453,0,0,1,.62-.166L899.4-214.292a.453.453,0,0,1,.166.62A.45.45,0,0,1,899.177-213.445Z" transform="translate(48.575 49.32)" fill="#fff"/>
  </g>
</svg>
