<svg xmlns="http://www.w3.org/2000/svg" xmlns:xlink="http://www.w3.org/1999/xlink" viewBox="0 0 341.585 266.807">
  <defs>
    <clipPath id="clip-path">
      <ellipse id="Ellipse_4" data-name="Ellipse 4" cx="49.811" cy="86.275" rx="49.811" ry="86.275" transform="translate(-760.778 19.813) rotate(-14.64)" fill="none"/>
    </clipPath>
    <radialGradient id="radial-gradient" cx="1.318" cy="0.302" r="0.844" gradientTransform="matrix(-0.86, 0.68, 0.797, 0.733, 66.695, -24.099)" gradientUnits="objectBoundingBox">
      <stop offset="0" stop-color="#f9636b"/>
      <stop offset="1" stop-color="#b6246e"/>
    </radialGradient>
  </defs>
  <g id="Group_17" data-name="Group 17" transform="translate(952.579 18.795)">
    <path id="Path_10" data-name="Path 10" d="M-887.978,222.059c-11.2,2.927-23.682-1.847-35.135-13.445-23.486-23.781-35.392-69.351-26.538-101.581,4.315-15.719,12.865-25.989,24.069-28.914s23.682,1.847,35.135,13.444c23.486,23.782,35.392,69.35,26.539,101.581-2.542,9.256-6.551,16.622-11.7,21.712A27.355,27.355,0,0,1-887.978,222.059ZM-948.688,107.3c-8.768,31.924,3.024,77.06,26.286,100.615,11.191,11.332,23.328,16.013,34.171,13.18s19.141-12.853,23.359-28.212c8.768-31.923-3.024-77.059-26.286-100.614-11.192-11.333-23.328-16.013-34.171-13.18a26.369,26.369,0,0,0-11.917,6.95C-942.274,91-946.193,98.217-948.688,107.3Z" fill="#1177b8"/>
    <path id="Path_11" data-name="Path 11" d="M-871.233,196.414c-8.092,2.114-17.1-1.326-25.353-9.687-16.887-17.1-25.447-49.864-19.081-73.039,3.112-11.33,9.281-18.736,17.375-20.851s17.095,1.327,25.352,9.688c16.887,17.1,25.446,49.864,19.082,73.038-1.832,6.668-4.721,11.974-8.438,15.646A19.785,19.785,0,0,1-871.233,196.414Zm-43.47-82.461c-6.281,22.867,2.166,55.2,18.829,72.072,7.995,8.1,16.656,11.441,24.388,9.421s13.65-9.175,16.664-20.147c6.28-22.868-2.166-55.2-18.83-72.071-7.995-8.1-16.657-11.443-24.387-9.423a18.785,18.785,0,0,0-8.489,4.952C-910.119,102.3-912.92,107.461-914.7,113.953Z" fill="#1177b8"/>
    <g id="Group_12" data-name="Group 12">
      <path id="Path_12" data-name="Path 12" d="M-763.462,223.032l-7.88-8.414-56.825-40.947,4.175-15.269,29.891-7.509,60.53,64.631c4.073,4.349,5.188,8.819,3.574,12.118l0,0-3.631,13.7-4.992-3.143-8.591-6.191A32.939,32.939,0,0,1-763.462,223.032Z" fill="#fff"/>
      <path id="Path_13" data-name="Path 13" d="M-740.586,247.473h0c8.254-2.073,9.525-9.541,2.839-16.68l-60.53-64.63-29.891,7.508,60.53,64.63C-760.952,245.44-748.84,249.547-740.586,247.473Z" fill="#fff"/>
    </g>
    <path id="Path_14" data-name="Path 14" d="M-888.1,161.626c-8.188-8.292-12.324-24.123-9.238-35.36,1.159-4.218,3.17-7.189,5.664-8.816h0l56.637-38.042,23.983,92.722-67.808-5.585h0C-881.828,166.34-885.03,164.732-888.1,161.626Z" fill="#fff"/>
    <path id="Path_15" data-name="Path 15" d="M-872.752,112.575c1.59-5.79,4.2-10.092,7.43-12.825l2.892-1.943c6.412-3.3,14.52-1.4,22.116,6.292,13.011,13.175,19.583,38.33,14.679,56.186a28.353,28.353,0,0,1-4.933,10.237l-28.023-2.308C-871.254,154.9-877.59,130.19-872.752,112.575Z" fill="#ccc" opacity="0.5"/>
    <path id="Path_16" data-name="Path 16" d="M-740.586,247.474h0c-8.254,2.073-20.366-2.034-27.052-9.172l-50.611-54.04-5.055-6.323,9.435-7.86,13.861-3.481-.291-4.206,11.368-4.733,16.75,16.4.37.406a14.655,14.655,0,0,1,.793,18.811l-.843,1.1,34.115,36.426C-731.061,237.933-732.332,245.4-740.586,247.474Z" fill="#dce6ea"/>
    <path id="Path_17" data-name="Path 17" d="M-847.54,168.763c-16.242-16.447-24.446-47.85-18.324-70.14,2.782-10.13,8.049-16.621,14.486-19.159l0-.018.139-.046.171-.058c.288-.107.579-.2.871-.294A253.935,253.935,0,0,0-745.306,11.791l8.17-8.722,47.9,186.868-10.9-3.541A253.944,253.944,0,0,0-823.3,177.939C-830.674,179.958-839.346,177.059-847.54,168.763Z" fill="#fff"/>
    <path id="Path_18" data-name="Path 18" d="M-723.763,171.116c-31.158-31.55-46.9-91.79-35.152-134.55,5.857-21.325,17.443-34.272,31.452-37.984l0,0,.076-.019.106-.027,12.814-3.261-3.421,2.209c11.709.313,24.461,6.435,36.659,18.786,31.158,31.55,46.9,91.791,35.151,134.551-4.609,16.781-12.766,28.373-22.86,34.361l3.155.622-11.788,3.013-.185.047-.423.108.01-.009C-692.113,192.358-708.379,186.694-723.763,171.116Z" fill="#dce6ea"/>
    <path id="Path_19" data-name="Path 19" d="M-714.637,168.776c-31.158-31.55-46.9-91.791-35.152-134.551C-744.011,13.188-732.655.308-718.9-3.6l1.96-.5c.69-.151,1.386-.274,2.086-.381l-3.037,1.961c11.709.313,24.461,6.435,36.659,18.786,31.158,31.55,46.9,91.791,35.151,134.551-4.609,16.781-12.766,28.373-22.86,34.361l2.876.567C-680.634,190.789-698.143,185.478-714.637,168.776Z" fill="#fff"/>
    <ellipse id="Ellipse_1" data-name="Ellipse 1" cx="56.774" cy="98.335" rx="56.774" ry="98.335" transform="translate(-770.563 9.904) rotate(-14.64)" fill="#dce6ea"/>
    <ellipse id="Ellipse_2" data-name="Ellipse 2" cx="49.811" cy="86.275" rx="49.811" ry="86.275" transform="translate(-760.778 19.813) rotate(-14.64)" fill="#1177b8"/>
    <path id="Path_20" data-name="Path 20" d="M-644.165,141.95c10.3-37.516-3.5-90.368-30.84-118.049C-689.361,9.365-704.591,4.667-717.311,8.909c13.261-6.041,29.732-1.792,45.19,13.859,27.336,27.681,41.144,80.533,30.84,118.049-4.893,17.815-14.345,28.963-25.849,32.8C-656.938,168.973-648.643,158.253-644.165,141.95Z" fill="#fff"/>
    <g id="Group_16" data-name="Group 16">
      <g id="Group_15" data-name="Group 15" clip-path="url(#clip-path)">
        <g id="Group_14" data-name="Group 14">
          <path id="Path_21" data-name="Path 21" d="M-694.53,73.9-805.6,87.405l16.315,62.264L-685.41,107Z" fill="#fff"/>
          <ellipse id="Ellipse_3" data-name="Ellipse 3" cx="9.947" cy="17.229" rx="9.947" ry="17.229" transform="translate(-704.757 76.541) rotate(-14.64)" fill="#d8d8d8"/>
          <g id="Group_13" data-name="Group 13">
            <path id="Path_22" data-name="Path 22" d="M-726.836,83.78c-2.6,9.453.883,22.771,7.771,29.746,2.56,2.591,5.229,3.94,7.707,4.13l-77.931,32.013L-805.6,87.4l82.24-10A13.854,13.854,0,0,0-726.836,83.78Z" fill="#d8d8d8"/>
          </g>
        </g>
      </g>
    </g>
    <path id="Path_23" data-name="Path 23" d="M-767.719,190.366l.163-.527a2,2,0,0,1,1.522-1.561l-.006-.005,3.468-.8-1.247,1.708c.085.08.171.163.255.254l11.61,12.523a7.678,7.678,0,0,1,1.818,6.623l2.043,1.276-3.482.793,0-.007a2.7,2.7,0,0,1-2.727-1.1l-11.609-12.523A7.662,7.662,0,0,1-767.719,190.366Z" fill="url(#radial-gradient)"/>
    <path id="Path_24" data-name="Path 24" d="M-767.719,190.366l.163-.527a2,2,0,0,1,1.522-1.561l-.006-.005,3.468-.8-1.247,1.708c.085.08.171.163.255.254l11.61,12.523a7.678,7.678,0,0,1,1.818,6.623l2.043,1.276-3.482.793,0-.007a2.7,2.7,0,0,1-2.727-1.1l-11.609-12.523A7.662,7.662,0,0,1-767.719,190.366Z" fill="#dce6ea"/>
    <path id="Path_25" data-name="Path 25" d="M-746.658,208.31l.162-.526a7.664,7.664,0,0,0-1.81-6.661l-11.61-12.523c-1.6-1.728-3.39-1.548-3.992.4l-.163.527a7.666,7.666,0,0,0,1.811,6.661l11.609,12.522C-749.048,210.441-747.261,210.261-746.658,208.31Z" fill="#1177b8"/>
  </g>
</svg>
